<svg xmlns="http://www.w3.org/2000/svg" viewBox="0 0 32 32" width="32" height="32">
  <defs>
    <linearGradient id="tile" x1="0" y1="0" x2="1" y2="1">
      <stop offset="0" stop-color="#0A84FF"/>
      <stop offset="1" stop-color="#64D2FF"/>
    </linearGradient>
  </defs>
  <rect width="32" height="32" rx="7.4" fill="url(#tile)"/>
  <path d="M7.1 13.4 a4.2 4.2 0 1 1 8.4 0 q0 5.4 -6.2 8.4 l-1.9 -3.1 q3.1 -1.6 3.6 -3.7 a4.2 4.2 0 0 1 -3.9 -1.6 z" fill="#fff"/>
  <path d="M16.6 13.4 a4.2 4.2 0 1 1 8.4 0 q0 5.4 -6.2 8.4 l-1.9 -3.1 q3.1 -1.6 3.6 -3.7 a4.2 4.2 0 0 1 -3.9 -1.6 z" fill="#fff" opacity="0.55"/>
</svg>
